<?xml version="1.0" encoding="utf-8"?>
<svg viewBox="0 0 500 500" xmlns="http://www.w3.org/2000/svg">
  <path d="M 39.395 69.689 C 39.395 36.556 65.83 9.7 98.445 9.7 L 246.074 9.7 C 278.644 9.7 305.124 36.556 305.124 69.689 L 305.124 249.659 L 312.507 249.659 C 357.349 249.659 393.702 286.59 393.702 332.145 L 393.702 362.14 C 393.702 374.607 403.575 384.637 415.846 384.637 C 428.118 384.637 437.991 374.607 437.991 362.14 L 437.991 216.946 C 412.524 211.134 393.702 187.607 393.702 159.674 L 393.702 99.685 L 364.177 69.689 C 356.058 61.403 356.058 47.981 364.177 39.695 C 372.296 31.409 385.583 31.409 393.702 39.695 L 465.025 112.152 C 476.097 123.4 482.28 138.584 482.28 154.519 L 482.28 362.14 C 482.28 399.446 452.569 429.629 415.846 429.629 C 379.123 429.629 349.413 399.446 349.413 362.14 L 349.413 332.145 C 349.413 311.431 332.9 293.809 312.507 293.809 L 305.124 293.809 L 305.124 429.629 C 321.457 429.629 334.652 443.032 334.652 459.623 C 334.652 476.214 321.457 489.618 305.124 489.618 L 39.395 489.618 C 23.091 489.618 9.869 476.214 9.869 459.623 C 9.869 443.032 23.091 429.629 39.395 429.629 Z M 98.445 174.673 C 98.445 182.92 105.09 189.669 113.209 189.669 L 231.313 189.669 C 239.431 189.669 246.074 182.92 246.074 174.673 L 246.074 84.688 C 246.074 76.401 239.431 69.689 231.313 69.689 L 113.209 69.689 C 105.09 69.689 98.445 76.401 98.445 84.688 Z M 260.553 370.411 L 231.114 326.726 L 231.144 418.373 L 275.214 418.358 L 275.214 417.909 C 275.208 400.929 269.74 384.647 260.553 370.411 Z M 84.184 370.469 C 74.6 384.711 69.543 400.997 69.549 417.977 L 69.549 418.426 L 113.618 418.411 L 113.588 326.764 Z M 113.622 431.503 L 69.553 431.518 L 69.555 438.065 C 69.559 448.911 79.427 457.702 91.597 457.698 L 113.631 457.69 L 113.63 454.432 C 113.633 463.461 121.853 470.78 131.998 470.776 L 212.796 470.75 C 222.942 470.747 231.159 463.416 231.156 454.378 L 231.157 457.652 L 253.191 457.645 C 265.357 457.641 275.224 448.843 275.22 437.997 L 275.218 431.45 L 231.148 431.465 L 231.147 428.194 C 231.144 417.473 225.355 407.983 216.447 402.012 L 216.408 284.18 C 216.399 255.825 205.969 228.948 178.924 210.874 C 175.022 208.256 169.604 208.258 165.702 210.878 C 138.668 228.97 128.257 255.854 128.266 284.209 L 128.305 402.041 C 119.401 408.018 113.618 417.511 113.621 428.232 Z M 166.637 261.284 L 178.022 261.28 C 187.066 261.277 194.369 267.779 194.371 275.84 C 194.372 277.19 193.451 277.641 192.35 277.642 L 152.32 277.655 C 150.805 277.655 150.3 277.204 150.299 275.854 C 150.297 267.793 157.593 261.287 166.637 261.284 Z" style="fill-rule: nonzero; stroke-width: 11px;"/>
</svg>