<?xml version="1.0" encoding="utf-8"?>
<svg viewBox="0 0 500 500" xmlns="http://www.w3.org/2000/svg">
  <path d="M 32.955 63.632 C 32.955 29.318 60.344 1.509 94.139 1.509 L 247.1 1.509 C 280.847 1.509 308.284 29.318 308.284 63.632 L 308.284 250 L 315.932 250 C 362.393 250 400.06 288.244 400.06 335.419 L 400.06 366.481 C 400.06 379.39 410.289 389.777 423.005 389.777 C 435.718 389.777 445.949 379.39 445.949 366.481 L 445.949 216.124 C 419.562 210.106 400.06 185.741 400.06 156.815 L 400.06 94.694 L 369.467 63.632 C 361.055 55.051 361.055 41.152 369.467 32.57 C 377.881 23.99 391.647 23.99 400.06 32.57 L 473.96 107.603 C 485.432 119.251 491.836 134.975 491.836 151.477 L 491.836 366.481 C 491.836 405.114 461.054 436.369 423.005 436.369 C 384.955 436.369 354.172 405.114 354.172 366.481 L 354.172 335.419 C 354.172 313.968 337.06 295.719 315.932 295.719 L 308.284 295.719 L 308.284 436.369 C 325.206 436.369 338.877 450.25 338.877 467.43 C 338.877 484.611 325.206 498.493 308.284 498.493 L 32.955 498.493 C 16.062 498.493 2.362 484.611 2.362 467.43 C 2.362 450.25 16.062 436.369 32.955 436.369 Z M 94.139 172.346 C 94.139 180.888 101.022 187.877 109.434 187.877 L 231.803 187.877 C 240.216 187.877 247.1 180.888 247.1 172.346 L 247.1 79.163 C 247.1 70.581 240.216 63.632 231.803 63.632 L 109.434 63.632 C 101.022 63.632 94.139 70.581 94.139 79.163 Z M 125.906 398.833 C 129.419 402.258 134.581 403.537 139.318 402.047 C 143.251 400.806 148.454 399.109 154.418 397.123 L 154.444 441.4 C 154.447 444.952 156.395 448.254 159.568 450.03 C 162.742 451.763 166.635 451.719 169.763 449.899 L 207.19 428.233 C 216.451 422.861 222.114 413.149 222.108 402.618 L 222.087 368.295 C 223.4 367.674 225.387 366.682 226.868 365.689 C 277.951 331.833 279.614 281.442 273.927 251.36 C 273.037 246.556 269.227 242.835 264.276 241.954 C 233.475 236.431 181.865 238.143 147.246 288.046 C 146.231 289.533 145.217 291.061 144.203 292.343 L 109.428 292.363 C 98.654 292.37 88.698 298.283 83.222 307.331 L 61.044 343.897 C 59.185 346.955 59.153 350.754 60.961 353.851 C 62.769 356.948 66.139 358.845 69.786 358.843 L 114.545 358.817 C 112.136 364.312 110.447 369.104 109.18 372.78 C 107.956 377.447 109.228 382.57 112.826 385.707 Z M 205.122 292.307 C 205.117 283.551 212.684 275.782 222.033 275.776 C 231.383 275.771 238.961 283.531 238.966 292.287 C 238.971 301.787 231.402 308.813 222.052 308.818 C 212.703 308.824 205.127 301.807 205.122 292.307 Z" style=""/>
</svg>