<?xml version="1.0" encoding="utf-8"?>
<svg viewBox="0 0 500 500" xmlns="http://www.w3.org/2000/svg" xmlns:bx="https://boxy-svg.com">
  <defs>
    <filter id="drop-shadow-filter-0" x="-500%" y="-500%" width="1000%" height="1000%" bx:preset="drop-shadow 1 10 10 1 1 rgba(0,0,0,0.3)">
      <feGaussianBlur in="SourceAlpha" stdDeviation="1"/>
      <feOffset dx="10" dy="10"/>
      <feComponentTransfer result="offsetblur">
        <feFuncA id="spread-ctrl" type="linear" slope="2"/>
      </feComponentTransfer>
      <feFlood flood-color="rgba(0,0,0,0.3)"/>
      <feComposite in2="offsetblur" operator="in"/>
      <feMerge>
        <feMergeNode/>
        <feMergeNode in="SourceGraphic"/>
      </feMerge>
    </filter>
  </defs>
  <path d="M 32.358 61.84 C 32.358 28.139 59.212 0.826 92.347 0.826 L 242.322 0.826 C 275.41 0.826 302.311 28.139 302.311 61.84 L 302.311 244.881 L 309.81 244.881 C 355.364 244.881 392.295 282.442 392.295 328.774 L 392.295 359.282 C 392.295 371.96 402.325 382.162 414.793 382.162 C 427.257 382.162 437.289 371.96 437.289 359.282 L 437.289 211.61 C 411.417 205.699 392.295 181.769 392.295 153.36 L 392.295 92.347 L 362.3 61.84 C 354.052 53.412 354.052 39.762 362.3 31.333 C 370.55 22.905 384.047 22.905 392.295 31.333 L 464.753 105.026 C 476.001 116.466 482.28 131.91 482.28 148.116 L 482.28 359.282 C 482.28 397.225 452.099 427.922 414.793 427.922 C 377.485 427.922 347.303 397.225 347.303 359.282 L 347.303 328.774 C 347.303 307.707 330.525 289.783 309.81 289.783 L 302.311 289.783 L 302.311 427.922 C 318.903 427.922 332.307 441.555 332.307 458.428 C 332.307 475.302 318.903 488.936 302.311 488.936 L 32.358 488.936 C 15.795 488.936 2.362 475.302 2.362 458.428 C 2.362 441.555 15.795 427.922 32.358 427.922 Z M 92.347 168.613 C 92.347 177.003 99.096 183.866 107.344 183.866 L 227.323 183.866 C 235.572 183.866 242.322 177.003 242.322 168.613 L 242.322 77.094 C 242.322 68.664 235.572 61.84 227.323 61.84 L 107.344 61.84 C 99.096 61.84 92.347 68.664 92.347 77.094 Z M 123.494 391.056 C 126.938 394.42 132 395.677 136.644 394.214 C 140.5 392.994 145.602 391.327 151.449 389.377 L 151.475 432.864 C 151.478 436.351 153.388 439.595 156.499 441.339 C 159.611 443.041 163.428 442.998 166.495 441.21 L 203.191 419.931 C 212.271 414.655 217.824 405.117 217.818 394.773 L 217.797 361.064 C 219.085 360.453 221.033 359.479 222.485 358.504 C 272.571 325.252 274.201 275.762 268.625 246.217 C 267.752 241.498 264.017 237.844 259.162 236.978 C 228.963 231.554 178.36 233.235 144.417 282.247 C 143.422 283.707 142.428 285.208 141.434 286.468 L 107.338 286.488 C 96.774 286.495 87.012 292.301 81.643 301.188 L 59.898 337.101 C 58.076 340.105 58.044 343.836 59.817 346.877 C 61.59 349.919 64.894 351.782 68.47 351.78 L 112.355 351.755 C 109.993 357.152 108.337 361.857 107.095 365.468 C 105.894 370.052 107.142 375.084 110.669 378.164 Z M 201.163 286.433 C 201.158 277.833 208.578 270.202 217.744 270.196 C 226.912 270.191 234.342 277.813 234.347 286.413 C 234.352 295.743 226.93 302.643 217.763 302.648 C 208.596 302.654 201.168 295.763 201.163 286.433 Z" style="filter: url(#drop-shadow-filter-0);"/>
</svg>